<?xml version="1.0" encoding="utf-8"?>
<!DOCTYPE svg PUBLIC "-//W3C//DTD SVG 1.1//EN" "http://www.w3.org/Graphics/SVG/1.1/DTD/svg11.dtd">
<svg style="width:308px;height:308px;" version="1.1" id="图形" xmlns="http://www.w3.org/2000/svg" xmlns:xlink="http://www.w3.org/1999/xlink" x="0px" y="0px" width="1025px" height="1024px" viewBox="0 0 1025 1024" enable-background="new 0 0 1025 1024" xml:space="preserve">
  <path class="svgpath" data-index="path_0" fill="#8a8a8a" d="M759.04 502.912c-39.776-7.712-20.448-29.12-20.448-29.12s38.912-64.128-7.712-110.752c-57.76-57.76-198.144 7.328-198.144 7.328-53.6 16.64-39.392-7.584-31.808-48.832 0-48.576-16.64-130.784-159.424-82.208C198.816 288.16 76.32 459.232 76.32 459.232c-85.216 113.696-73.92 201.536-73.92 201.536 21.28 193.952 227.36 247.2 387.648 259.808 168.672 13.248 396.256-58.112 465.312-204.704C924.352 568.992 798.944 510.88 759.04 502.912zM402.56 865.888c-167.392 7.808-302.72-76.128-302.72-187.872 0-111.84 135.328-201.536 302.72-209.248 167.552-7.744 303.136 61.312 303.136 172.928C705.696 753.408 570.08 858.272 402.56 865.888z" />
<path class="svgpath" data-index="path_1" fill="#8a8a8a" d="M369.184 542.432c-168.416 19.712-148.928 177.44-148.928 177.44s-1.728 49.952 45.152 75.36c98.528 53.376 199.968 21.056 251.232-45.152C567.904 683.904 537.792 522.88 369.184 542.432zM326.688 763.808c-31.424 3.712-56.768-14.432-56.768-40.736 0-26.176 22.496-53.6 53.952-56.896 36.128-3.424 59.616 17.376 59.616 43.68C383.488 736.032 357.984 760.256 326.688 763.808zM425.92 679.264c-10.624 7.968-23.744 6.848-29.344-2.688-5.888-9.28-3.68-24.224 7.104-32.032 12.48-9.312 25.44-6.624 31.072 2.688C440.384 656.736 436.352 671.04 425.92 679.264z" />
<path class="svgpath" data-index="path_2" fill="#8a8a8a" d="M841.024 434.656c13.568 0 25.088-10.016 27.04-23.136 0.256-0.96 0.384-1.856 0.384-2.944 20.544-184.896-151.52-153.088-151.52-153.088-15.296 0-27.52 12.352-27.52 27.776 0 15.168 12.224 27.52 27.52 27.52 123.616-27.296 96.32 96.32 96.32 96.32C813.248 422.4 825.696 434.656 841.024 434.656z" />
<path class="svgpath" data-index="path_3" fill="#8a8a8a" d="M820.96 111.904c-59.488-13.952-120.672-1.952-137.824 1.344-1.312 0.128-2.56 1.376-3.776 1.632-0.576 0.128-0.96 0.736-0.96 0.736-16.896 4.768-29.248 20.416-29.248 38.912 0 22.016 17.856 40.128 40.128 40.128 0 0 21.664-2.88 36.32-8.64 14.592-5.888 137.792-4.384 199.008 98.4 33.408 75.04 14.688 125.216 12.32 133.312 0 0-7.936 19.488-7.936 38.688 0 22.144 17.856 36.064 40 36.064 18.496 0 34.016-2.528 38.592-33.792l0.256 0C1073.536 239.68 927.424 136.736 820.96 111.904z" />

</svg>
