<?xml version="1.0" encoding="utf-8"?>
<!DOCTYPE svg PUBLIC "-//W3C//DTD SVG 1.1//EN" "http://www.w3.org/Graphics/SVG/1.1/DTD/svg11.dtd">
<svg style="width:308px;height:308px;" version="1.1" id="图形" xmlns="http://www.w3.org/2000/svg" xmlns:xlink="http://www.w3.org/1999/xlink" x="0px" y="0px" width="1024px" height="1024px" viewBox="0 0 1024 1024" enable-background="new 0 0 1024 1024" xml:space="preserve">
  <path class="svgpath" data-index="path_0" fill="#272636" d="M507.384 689.998c96.717 0 175.391-81.3 175.391-181.208s-78.674-181.208-175.391-181.208S331.994 408.881 331.994 508.79 410.667 689.998 507.384 689.998zM507.384 369.94c73.365 0 133.033 62.295 133.033 138.849 0 76.555-59.668 138.85-133.033 138.85-73.364 0-133.032-62.295-133.032-138.85C374.352 432.235 434.021 369.94 507.384 369.94zM4.086 510.907c84.207 215.829 283.629 355.271 507.957 355.271 224.414 0 423.863-139.441 508.072-355.271l2.993-7.68-2.993-7.682c-84.236-215.799-283.687-355.242-508.072-355.242-224.328 0-423.721 139.442-507.957 355.214l-2.994 7.681L4.086 510.907zM512.043 182.661c204.138 0 386.023 125.521 465.543 320.566-79.521 195.044-261.405 320.622-465.543 320.622-204.108 0-385.91-125.549-465.43-320.622C126.134 308.182 307.935 182.661 512.043 182.661z" />

</svg>
